<svg width="800" height="600" viewBox="0 0 800 600" xmlns="http://www.w3.org/2000/svg">
  <defs>
    <linearGradient id="core-g" x1="0" y1="0" x2="1" y2="1">
      <stop offset="0%" stop-color="#EF9F27"/><stop offset="100%" stop-color="#BA7517"/>
    </linearGradient>
    <linearGradient id="hex-g" x1="0" y1="0" x2="1" y2="1">
      <stop offset="0%" stop-color="#1D9E75"/><stop offset="100%" stop-color="#085041"/>
    </linearGradient>
  </defs>
  <g transform="translate(400,220)">
    <polygon points="0,-82 71,-41 71,41 0,82 -71,41 -71,-41" fill="none" stroke="#1D9E75" stroke-width="0.6" opacity="0.1"/>
    <polygon points="0,-62 53.7,-31 53.7,31 0,62 -53.7,31 -53.7,-31" fill="none" stroke="url(#hex-g)" stroke-width="1" opacity="0.3"/>
    <polygon points="0,-40 34.6,-20 34.6,20 0,40 -34.6,20 -34.6,-20" fill="none" stroke="url(#hex-g)" stroke-width="1.5" opacity="0.55"/>
    <polygon points="0,-22 19,-11 19,11 0,22 -19,11 -19,-11" fill="none" stroke="url(#core-g)" stroke-width="1.5" opacity="0.7"/>
    <line x1="0" y1="-62" x2="53.7" y2="-31" stroke="#1D9E75" stroke-width="0.35" opacity="0.2"/>
    <line x1="53.7" y1="-31" x2="53.7" y2="31" stroke="#1D9E75" stroke-width="0.35" opacity="0.2"/>
    <line x1="53.7" y1="31" x2="0" y2="62" stroke="#1D9E75" stroke-width="0.35" opacity="0.2"/>
    <line x1="0" y1="62" x2="-53.7" y2="31" stroke="#1D9E75" stroke-width="0.35" opacity="0.2"/>
    <line x1="-53.7" y1="31" x2="-53.7" y2="-31" stroke="#1D9E75" stroke-width="0.35" opacity="0.2"/>
    <line x1="-53.7" y1="-31" x2="0" y2="-62" stroke="#1D9E75" stroke-width="0.35" opacity="0.2"/>
    <line x1="0" y1="-62" x2="0" y2="-40" stroke="#1D9E75" stroke-width="0.3" opacity="0.15"/>
    <line x1="53.7" y1="-31" x2="34.6" y2="-20" stroke="#1D9E75" stroke-width="0.3" opacity="0.15"/>
    <line x1="53.7" y1="31" x2="34.6" y2="20" stroke="#1D9E75" stroke-width="0.3" opacity="0.15"/>
    <line x1="0" y1="62" x2="0" y2="40" stroke="#1D9E75" stroke-width="0.3" opacity="0.15"/>
    <line x1="-53.7" y1="31" x2="-34.6" y2="20" stroke="#1D9E75" stroke-width="0.3" opacity="0.15"/>
    <line x1="-53.7" y1="-31" x2="-34.6" y2="-20" stroke="#1D9E75" stroke-width="0.3" opacity="0.15"/>
    <circle cx="0" cy="-62" r="4.5" fill="#1D9E75"/><circle cx="0" cy="-62" r="1.8" fill="#E1F5EE"/>
    <circle cx="53.7" cy="-31" r="3.5" fill="#EF9F27"/><circle cx="53.7" cy="-31" r="1.3" fill="#FAEEDA"/>
    <circle cx="53.7" cy="31" r="3" fill="#D85A30"/><circle cx="53.7" cy="31" r="1" fill="#FAECE7"/>
    <circle cx="0" cy="62" r="4" fill="#1D9E75"/><circle cx="0" cy="62" r="1.5" fill="#E1F5EE"/>
    <circle cx="-53.7" cy="31" r="3" fill="#5DCAA5"/><circle cx="-53.7" cy="31" r="1" fill="#E1F5EE"/>
    <circle cx="-53.7" cy="-31" r="3.5" fill="#EF9F27"/><circle cx="-53.7" cy="-31" r="1.3" fill="#FAEEDA"/>
    <circle cx="0" cy="0" r="14" fill="url(#core-g)"/>
    <circle cx="0" cy="0" r="7.5" fill="#FAEEDA"/>
    <circle cx="0" cy="0" r="3" fill="#BA7517"/>
  </g>
  <text x="258" y="395" font-family="system-ui, -apple-system, 'Segoe UI', sans-serif" font-size="44" font-weight="500" fill="#1a1a2e" letter-spacing="-0.5">Risk</text>
  <text x="363" y="395" font-family="system-ui, -apple-system, 'Segoe UI', sans-serif" font-size="44" font-weight="500" fill="#0F6E56" letter-spacing="-0.5">Nova</text>
  <rect x="482" y="372" width="46" height="26" rx="6" fill="url(#core-g)"/>
  <text x="505" y="391" text-anchor="middle" font-family="system-ui, sans-serif" font-size="14" font-weight="500" fill="#FAEEDA" letter-spacing="1.5">AI</text>
  <line x1="258" y1="412" x2="528" y2="412" stroke="#0F6E56" stroke-width="0.5" opacity="0.2"/>
  <text x="393" y="440" text-anchor="middle" font-family="system-ui, sans-serif" font-size="12" letter-spacing="5" fill="#0F6E56" opacity="0.5">AKILLI RISK YONETIMI</text>
</svg>
