<svg width="512" height="512" viewBox="0 0 512 512" xmlns="http://www.w3.org/2000/svg">
  <defs>
    <linearGradient id="bg" x1="0" y1="0" x2="1" y2="1">
      <stop offset="0%" stop-color="#0F6E56"/><stop offset="100%" stop-color="#04342C"/>
    </linearGradient>
    <linearGradient id="core" x1="0" y1="0" x2="1" y2="1">
      <stop offset="0%" stop-color="#EF9F27"/><stop offset="100%" stop-color="#BA7517"/>
    </linearGradient>
  </defs>
  <rect width="512" height="512" rx="102" fill="url(#bg)"/>
  <g transform="translate(256,215)">
    <polygon points="0,-110 95.3,-55 95.3,55 0,110 -95.3,55 -95.3,-55" fill="none" stroke="#5DCAA5" stroke-width="1" opacity="0.12"/>
    <polygon points="0,-80 69.3,-40 69.3,40 0,80 -69.3,40 -69.3,-40" fill="none" stroke="#5DCAA5" stroke-width="1.5" opacity="0.25"/>
    <polygon points="0,-52 45,-26 45,26 0,52 -45,26 -45,-26" fill="none" stroke="#5DCAA5" stroke-width="2" opacity="0.45"/>
    <polygon points="0,-28 24.2,-14 24.2,14 0,28 -24.2,14 -24.2,-14" fill="none" stroke="#EF9F27" stroke-width="2" opacity="0.6"/>
    <line x1="0" y1="-80" x2="69.3" y2="-40" stroke="#5DCAA5" stroke-width="0.5" opacity="0.15"/>
    <line x1="69.3" y1="-40" x2="69.3" y2="40" stroke="#5DCAA5" stroke-width="0.5" opacity="0.15"/>
    <line x1="69.3" y1="40" x2="0" y2="80" stroke="#5DCAA5" stroke-width="0.5" opacity="0.15"/>
    <line x1="0" y1="80" x2="-69.3" y2="40" stroke="#5DCAA5" stroke-width="0.5" opacity="0.15"/>
    <line x1="-69.3" y1="40" x2="-69.3" y2="-40" stroke="#5DCAA5" stroke-width="0.5" opacity="0.15"/>
    <line x1="-69.3" y1="-40" x2="0" y2="-80" stroke="#5DCAA5" stroke-width="0.5" opacity="0.15"/>
    <line x1="0" y1="-80" x2="0" y2="-52" stroke="#5DCAA5" stroke-width="0.4" opacity="0.12"/>
    <line x1="69.3" y1="-40" x2="45" y2="-26" stroke="#5DCAA5" stroke-width="0.4" opacity="0.12"/>
    <line x1="69.3" y1="40" x2="45" y2="26" stroke="#5DCAA5" stroke-width="0.4" opacity="0.12"/>
    <line x1="0" y1="80" x2="0" y2="52" stroke="#5DCAA5" stroke-width="0.4" opacity="0.12"/>
    <line x1="-69.3" y1="40" x2="-45" y2="26" stroke="#5DCAA5" stroke-width="0.4" opacity="0.12"/>
    <line x1="-69.3" y1="-40" x2="-45" y2="-26" stroke="#5DCAA5" stroke-width="0.4" opacity="0.12"/>
    <circle cx="0" cy="-80" r="6" fill="#5DCAA5"/><circle cx="0" cy="-80" r="2.5" fill="#E1F5EE"/>
    <circle cx="69.3" cy="-40" r="5" fill="#EF9F27"/><circle cx="69.3" cy="-40" r="2" fill="#FAEEDA"/>
    <circle cx="69.3" cy="40" r="4.5" fill="#D85A30"/><circle cx="69.3" cy="40" r="1.5" fill="#FAECE7"/>
    <circle cx="0" cy="80" r="5.5" fill="#5DCAA5"/><circle cx="0" cy="80" r="2" fill="#E1F5EE"/>
    <circle cx="-69.3" cy="40" r="4.5" fill="#9FE1CB"/><circle cx="-69.3" cy="40" r="1.5" fill="#E1F5EE"/>
    <circle cx="-69.3" cy="-40" r="5" fill="#EF9F27"/><circle cx="-69.3" cy="-40" r="2" fill="#FAEEDA"/>
    <circle cx="0" cy="0" r="20" fill="url(#core)"/>
    <circle cx="0" cy="0" r="11" fill="#FAEEDA"/>
    <circle cx="0" cy="0" r="4.5" fill="#BA7517"/>
  </g>
  <text x="256" y="430" text-anchor="middle" font-family="system-ui, -apple-system, 'Segoe UI', sans-serif" font-size="38" font-weight="500" fill="#E1F5EE" letter-spacing="0.5">RiskNova</text>
  <text x="256" y="462" text-anchor="middle" font-family="system-ui, sans-serif" font-size="16" font-weight="500" fill="#EF9F27" letter-spacing="2">AI</text>
</svg>
