<?xml version="1.0" encoding="utf-8"?>
<svg width="500" height="500" viewBox="4.03 -2.42 394.48 394.48" xmlns="http://www.w3.org/2000/svg">
  <rect x="4.03" y="-2.42" width="394.48" height="394.48" rx="86.78" ry="86.78" style="fill: rgb(245, 242, 235);"/>
  <path d="M199.648 19.041 C 198.387 20.101,198.438 19.452,198.438 34.722 C 198.438 45.579,198.385 48.627,198.193 48.779 C 198.059 48.886,195.928 49.076,193.457 49.202 C 138.809 51.981,92.687 82.865,69.543 132.178 C 61.358 149.617,55.673 173.452,55.664 190.366 C 55.664 190.743,55.471 191.215,55.171 191.572 L 54.677 192.158 40.571 192.224 C 28.115 192.282,26.385 192.327,25.781 192.604 C 23.649 193.584,23.411 196.098,25.337 197.296 L 26.074 197.754 40.477 197.808 L 54.880 197.861 55.167 198.299 C 55.369 198.607,55.515 199.781,55.660 202.250 C 60.222 279.990,116.115 336.291,193.259 340.853 C 196.994 341.074,197.377 341.130,197.837 341.526 L 198.340 341.958 198.438 355.305 C 198.534 368.471,198.541 368.665,198.957 369.566 C 199.613 370.985,201.158 371.515,202.545 370.797 C 203.995 370.048,204.088 369.059,204.096 354.331 L 204.102 342.157 204.647 341.612 C 205.184 341.075,205.237 341.065,208.309 340.932 C 265.982 338.445,317.438 301.832,337.064 249.316 C 342.512 234.740,345.931 217.984,346.789 201.660 C 346.923 199.097,347.159 198.204,347.763 197.973 C 347.937 197.906,354.447 197.852,362.229 197.852 C 377.824 197.852,377.361 197.887,378.120 196.643 C 378.880 195.395,378.467 193.653,377.215 192.833 C 376.713 192.504,375.733 192.474,362.280 192.383 L 347.883 192.285 347.420 191.850 C 346.985 191.441,346.942 191.193,346.711 187.749 C 342.324 122.300,300.566 70.448,238.867 53.834 C 229.975 51.440,217.989 49.678,206.689 49.105 L 204.102 48.973 204.096 45.043 C 204.073 29.282,203.865 20.610,203.492 19.877 C 202.799 18.516,200.790 18.079,199.648 19.041" fill-rule="evenodd" style="fill: rgb(31, 49, 80);"/>
  <path d="M211.816 54.314 C 250.169 56.924,286.336 75.613,310.092 105.098 C 327.311 126.470,338.815 154.144,341.120 179.736 C 341.297 181.695,341.223 181.656,339.957 179.133 C 326.795 152.889,297.994 131.736,263.748 123.160 C 248.129 119.248,224.923 117.239,206.006 118.159 C 202.962 118.307,203.334 122.678,203.274 86.064 L 203.223 54.653 203.707 54.261 C 204.237 53.831,204.770 53.835,211.816 54.314" fill-rule="evenodd" style="fill: rgb(0, 187, 160);"/>
  <path d="M198.319 55.582 C 198.384 55.752,198.438 86.420,198.438 123.732 L 198.438 191.573 197.923 191.978 L 197.408 192.383 165.104 192.383 C 130.832 192.383,132.003 192.413,131.250 191.504 C 130.861 191.034,130.829 163.412,131.211 158.008 C 134.323 114.015,151.402 80.979,180.618 62.439 C 187.084 58.335,197.785 54.191,198.319 55.582" fill-rule="evenodd" style="fill: rgb(245, 242, 235);"/>
  <path d="M224.902 123.049 C 246.501 123.721,262.165 126.579,278.407 132.809 C 302.669 142.115,322.793 158.647,334.372 178.784 C 336.584 182.630,339.844 190.162,339.844 191.426 C 339.844 192.450,344.412 192.389,271.924 192.335 L 204.914 192.285 204.410 191.812 L 203.906 191.338 203.906 158.065 C 203.906 122.236,203.861 123.830,204.901 123.292 C 205.711 122.874,215.466 122.755,224.902 123.049" fill-rule="evenodd" style="fill: rgb(245, 242, 235);"/>
  <path d="M197.923 198.256 L 198.437 198.661 198.438 232.490 C 198.438 263.362,198.410 266.359,198.121 266.771 L 197.805 267.223 184.205 267.131 C 176.725 267.080,169.375 266.940,167.871 266.820 C 149.296 265.331,132.205 261.157,117.578 254.536 C 112.321 252.156,111.520 251.771,109.299 250.552 C 88.773 239.293,73.483 223.924,65.420 206.445 C 64.011 203.392,62.500 199.456,62.500 198.840 C 62.500 197.780,57.611 197.852,130.388 197.852 L 197.408 197.852 197.923 198.256" fill-rule="evenodd" style="fill: rgb(245, 242, 235);"/>
  <path d="M271.141 198.343 C 271.865 199.067,271.875 199.227,271.870 209.644 C 271.856 234.307,270.620 245.754,266.385 260.449 C 258.311 288.466,244.391 310.298,225.391 324.743 C 217.045 331.088,205.633 336.426,204.433 334.547 C 204.169 334.134,204.128 326.541,204.070 266.340 L 204.004 198.599 204.465 198.225 C 204.915 197.861,205.716 197.852,237.788 197.852 L 270.650 197.852 271.141 198.343" fill-rule="evenodd" style="fill: rgb(245, 242, 235);"/>
  <path d="M341.717 198.340 C 342.569 199.639,340.991 214.941,338.959 225.098 C 328.916 275.280,293.726 314.090,244.125 329.685 C 236.056 332.222,217.619 336.123,218.561 335.095 C 218.618 335.032,219.716 334.350,221.002 333.579 C 249.589 316.427,270.568 279.942,275.574 238.672 C 276.494 231.089,276.598 228.452,276.573 213.323 C 276.551 200.017,276.573 198.968,276.891 198.430 L 277.233 197.852 309.315 197.852 L 341.397 197.852 341.717 198.340" fill-rule="evenodd" style="fill: rgb(0, 189, 162);"/>
  <path d="M 59.944 191.895 C 59.092 190.596 60.670 175.294 62.702 165.137 C 72.745 114.955 107.935 76.145 157.536 60.550 C 165.605 58.013 184.042 54.112 183.100 55.140 C 183.043 55.203 181.945 55.885 180.659 56.656 C 152.072 73.808 131.093 110.293 126.087 151.563 C 125.167 159.146 125.063 161.783 125.088 176.912 C 125.110 190.218 125.088 191.267 124.770 191.805 L 124.428 192.383 92.346 192.383 L 60.264 192.383 59.944 191.895" fill-rule="evenodd" style="fill: rgb(31, 49, 80);"/>
  <path d="M 189.845 334.561 C 151.492 331.951 115.325 313.262 91.569 283.777 C 74.350 262.405 62.846 234.731 60.541 209.139 C 60.364 207.180 60.438 207.219 61.704 209.742 C 74.866 235.986 103.667 257.139 137.913 265.715 C 153.532 269.627 176.738 271.636 195.655 270.716 C 198.699 270.568 198.327 266.197 198.387 302.811 L 198.438 334.222 197.954 334.614 C 197.424 335.044 196.891 335.040 189.845 334.561" fill-rule="evenodd" style="fill: rgb(31, 49, 80);"/>
</svg>